<svg width="27" height="27" viewBox="0 0 27 27" fill="none" xmlns="http://www.w3.org/2000/svg">
<path d="M25.8731 18.6011L23.4622 16.1902C22.7435 15.4773 21.7735 15.0754 20.7612 15.0711C19.749 15.0668 18.7756 15.4605 18.0509 16.1672C17.6642 16.5561 17.154 16.7981 16.6082 16.8515C16.0624 16.9049 15.515 16.7664 15.0603 16.4598C13.2655 15.262 11.7236 13.7231 10.5223 11.9306C10.2212 11.4708 10.0877 10.9212 10.1444 10.3745C10.2011 9.82777 10.4445 9.31728 10.8336 8.92905C11.5339 8.20366 11.9225 7.23295 11.9162 6.22466C11.9098 5.21637 11.509 4.25062 10.7996 3.53412L8.38872 1.12322C7.66693 0.4039 6.68947 0 5.67046 0C4.65145 0 3.67398 0.4039 2.95219 1.12322L2.25852 1.81799C-1.3578 5.43434 -1.08712 13.0374 6.437 20.5573C10.9738 25.0952 15.5403 26.9954 19.2431 26.9954C20.3332 27.0317 21.4195 26.8507 22.4388 26.463C23.4582 26.0752 24.3902 25.4884 25.1805 24.7369L25.8752 24.0421C26.5959 23.32 27.0004 22.3413 27 21.3212C26.9996 20.301 26.5943 19.3227 25.8731 18.6011ZM24.3235 22.4925L23.6288 23.1873C20.7795 26.0366 14.4904 25.516 7.98435 19.0088C1.47827 12.5016 0.956642 6.20802 3.80586 3.35878L4.49515 2.6651C4.80551 2.35586 5.22577 2.18223 5.66388 2.18223C6.10199 2.18223 6.52225 2.35586 6.83261 2.6651L9.24349 5.07599C9.5482 5.38224 9.72116 5.79545 9.72546 6.22745C9.72976 6.65944 9.56506 7.07602 9.2665 7.38827C8.526 8.13349 8.0641 9.11055 7.95816 10.1558C7.85222 11.201 8.10869 12.2508 8.6846 13.1295C10.0495 15.1721 11.8048 16.9247 13.8494 18.2866C14.7254 18.8626 15.7725 19.1206 16.8158 19.0175C17.8591 18.9144 18.8355 18.4564 19.5818 17.7201C19.8934 17.418 20.3112 17.2502 20.7452 17.2529C21.1792 17.2555 21.5949 17.4284 21.9028 17.7343L24.3137 20.1452C24.469 20.2983 24.5926 20.4807 24.6772 20.6818C24.7619 20.8828 24.8059 21.0987 24.8069 21.3168C24.8078 21.535 24.7655 21.7512 24.6826 21.9529C24.5996 22.1547 24.4776 22.3381 24.3235 22.4925Z" fill="white"/>
</svg>
