<svg width="77" height="89" viewBox="0 0 77 89" fill="none" xmlns="http://www.w3.org/2000/svg">
<path d="M2.38583 65.5818L8.6776 57.226C10.5556 54.7527 13.3303 53.1165 16.4035 52.6701C19.4767 52.2237 22.6023 53.0029 25.1063 54.8397C26.4474 55.8556 28.1007 56.3723 29.7817 56.3009C31.4627 56.2294 33.0662 55.5744 34.3163 54.4484C39.2558 50.0414 43.2809 44.7065 46.1629 38.7471C46.881 37.2213 47.0513 35.4947 46.645 33.8581C46.2388 32.2215 45.2808 30.7749 43.9326 29.7621C41.4946 27.8583 39.8986 25.0758 39.4863 22.0101C39.0739 18.9444 39.878 15.8391 41.7264 13.3588L48.0182 5.00299C49.903 2.50888 52.6994 0.863497 55.795 0.427299C58.8905 -0.0088996 62.0328 0.799654 64.5333 2.67583L66.938 4.48949C79.4716 13.9272 81.904 37.1398 62.2661 63.2043C50.4266 78.9318 37.3681 86.659 26.1195 88.2441C22.8238 88.8209 19.4462 88.7361 16.1837 87.9945C12.9211 87.2529 9.83874 85.8694 7.11622 83.9245L4.70824 82.1113C2.21001 80.2261 0.562198 77.4264 0.126746 74.3271C-0.308699 71.2279 0.503817 68.0825 2.38583 65.5818ZM8.75878 76.7399L11.1668 78.5531C21.0418 85.9889 39.924 81.7155 56.9027 59.1628C73.8814 36.6101 72.772 17.2682 62.897 9.83244L60.5061 8.02024C59.431 7.21369 58.08 6.86613 56.7491 7.05367C55.4182 7.24121 54.2158 7.94856 53.4054 9.02081L47.1136 17.3766C46.3191 18.4374 45.9705 19.7667 46.1424 21.0808C46.3142 22.395 46.9929 23.59 48.0335 24.4107C50.602 26.3576 52.4234 29.128 53.1926 32.2578C53.9619 35.3876 53.6322 38.6867 52.2588 41.6024C48.9867 48.3916 44.4049 54.4671 38.7768 59.4795C36.3623 61.6043 33.2918 62.8362 30.0783 62.9696C26.8647 63.1029 23.7027 62.1296 21.1204 60.2122C20.0444 59.4279 18.7035 59.0972 17.3862 59.291C16.0688 59.4849 14.8802 60.188 14.0757 61.2491L7.78393 69.6049C7.37747 70.1366 7.08016 70.7434 6.90911 71.3905C6.73805 72.0376 6.69664 72.712 6.78725 73.3752C6.87785 74.0383 7.09868 74.6769 7.43703 75.2544C7.77538 75.8318 8.22459 76.3367 8.75878 76.7399Z" fill="white"/>
</svg>
