<svg width="26" height="26" viewBox="0 0 26 26" fill="none" xmlns="http://www.w3.org/2000/svg">
<path d="M18.4564 0C22.6174 0.0141348 25.9874 3.78618 26 8.44356V10.5545L25.9916 10.6942C25.9307 11.1968 25.5458 11.5842 25.0801 11.5842L25.0686 11.5584L24.9238 11.5456C24.7334 11.5116 24.5561 11.4113 24.4181 11.2568C24.2455 11.0637 24.1486 10.8018 24.1486 10.5287V8.44356C24.1175 4.93934 21.5871 2.10715 18.4564 2.07228H7.54356C4.41286 2.10715 1.88255 4.93934 1.85139 8.44356V17.5564C1.88255 21.0607 4.41286 23.8929 7.54356 23.9277H18.4564C21.5871 23.8929 24.1175 21.0607 24.1486 17.5564C24.2012 17.0287 24.5999 16.6295 25.0743 16.6295C25.5487 16.6295 25.9474 17.0287 26 17.5564C25.9874 22.2138 22.6174 25.9859 18.4564 26H7.54356C3.37999 25.9929 0.00633244 22.2167 0 17.5564V8.44356C0 3.78031 3.37737 0 7.54356 0H18.4564ZM5.58276 7.78112C5.82491 7.75208 6.06734 7.83308 6.25564 8.00594L11.6603 12.7941C12.3354 13.387 13.2851 13.387 13.9602 12.7941L19.3074 8.00594H19.3189L19.4316 7.91977C19.8201 7.66724 20.3248 7.76042 20.6183 8.1604C20.7721 8.37489 20.8428 8.64933 20.8147 8.92254C20.7867 9.19576 20.6621 9.44505 20.4688 9.61485L15.1216 14.4158C13.762 15.6405 11.824 15.6405 10.4644 14.4158L5.10571 9.61485L5.00676 9.50958C4.70459 9.13747 4.67998 8.56555 4.96771 8.1604C5.11902 7.9468 5.34061 7.81016 5.58276 7.78112Z" fill="white"/>
</svg>
