<svg width="29" height="26" viewBox="0 0 29 26" fill="none" xmlns="http://www.w3.org/2000/svg">
<path d="M14.0001 24.5C13.6087 24.7605 12.9548 25.0831 12.5001 25C12.0001 25 11.2517 24.378 11.0001 24L7.7245 18.8438C7.49729 18.5053 7.44387 17.91 7.50012 17.5C7.55638 17.0901 7.6876 16.7833 8.00012 16.5L10.5001 13L6.50012 14.5C6.11804 14.6788 5.90004 14.6065 5.50012 14.5C5.1002 14.3936 4.59078 13.8209 4.36617 13.4806L0.758684 8.50003C0.602121 8.26484 0.522891 7.78392 0.500122 7.50003C0.477353 7.21613 0.383698 6.76511 0.500137 6.50001C0.616576 6.23492 0.772178 6.18327 1.00014 6.00001C1.2281 5.81676 1.90556 5.35925 2.19083 5.30141L25.8349 0.800292C26.2153 0.723285 26.6467 0.858048 27.0001 1.00001C27.3536 1.14197 27.6135 1.48344 27.8222 1.79708C28.031 2.11073 28.1394 2.48112 28.1339 2.86198C28.1284 3.24283 28.0401 3.67882 27.8222 4.00003L21.5001 14L14.5001 24C14.3679 24.1951 14.1973 24.3687 14.0001 24.5ZM2.19084 7.01262C2.09481 7.07718 2.0192 7.16754 1.9734 7.2725C1.93353 7.36079 1.91651 7.45685 1.92391 7.55183C1.9313 7.64682 1.96288 7.73767 2.01572 7.81601L5.50012 12.5C5.57528 12.6131 5.86695 12.9645 6.00012 13C6.13329 13.0355 5.94914 13.0786 6.0766 13.0195L10.5001 11.5C10.6576 11.4266 11.3353 11.4564 11.5001 11.5C12.0001 12 11.8566 11.7844 12.0001 12C12.0932 12.1398 12.0235 12.8312 12.0001 13C11.9768 13.1689 11.6287 13.8831 11.5001 14L9.07545 17.5253C8.97122 17.6196 8.90358 17.7466 8.88483 17.8833C8.86609 18.0199 8.89748 18.1571 8.97331 18.2698L12.3076 23.2796C12.3596 23.3583 12.431 23.4224 12.5154 23.4661C12.5998 23.5099 12.6946 23.532 12.7912 23.5304C12.8878 23.5288 12.9833 23.5037 13.0692 23.4571C13.155 23.4106 13.2285 23.3442 13.283 23.2638L26.8259 3.31769C26.9137 3.18788 26.9616 3.03667 26.9637 2.88292C26.9658 2.72916 26.9219 2.57966 26.8377 2.45303C26.7534 2.32641 26.6324 2.22827 26.4898 2.17084C26.3471 2.11342 26.1538 2.14 26.0001 2.17084L2.40686 6.92231C2.33003 6.93843 2.25665 6.9691 2.19084 7.01262Z" fill="white"/>
</svg>
