<svg width="46" height="83" viewBox="0 0 46 83" fill="none" xmlns="http://www.w3.org/2000/svg">
<path d="M24.7727 36.4278C14.5204 33.7072 11.2234 30.9175 11.2234 26.5369C11.2234 21.5108 15.7624 17.9833 23.4178 17.9833C31.457 17.9833 34.4379 21.9028 34.7089 27.6667H44.6902C44.3967 19.7125 39.6318 12.4731 30.1924 10.0983V0H16.6431V9.96C7.8812 11.9197 0.835542 17.6836 0.835542 26.6061C0.835542 37.2578 9.48454 42.5606 22.0628 45.65C33.3765 48.4167 35.6122 52.4514 35.6122 56.7858C35.6122 59.9444 33.4217 65.0167 23.4178 65.0167C14.1139 65.0167 10.433 60.7514 9.95877 55.3333H0C0.564556 65.4317 7.94895 71.0803 16.6431 72.9939V83H30.1924V73.0861C38.9769 71.3569 46 66.1694 46 56.6936C46 43.6442 35.025 39.1714 24.7727 36.4278Z" fill="white"/>
</svg>
